<?xml version="1.0" encoding="iso-8859-1"?>
<!-- Generator: Adobe Illustrator 19.0.0, SVG Export Plug-In . SVG Version: 6.00 Build 0)  -->
<svg version="1.1" id="Layer_1" xmlns="http://www.w3.org/2000/svg" xmlns:xlink="http://www.w3.org/1999/xlink" x="0px" y="0px"
	 viewBox="0 0 512.001 512.001" style="enable-background:new 0 0 512.001 512.001;" xml:space="preserve">
<circle style="fill:#CFF09E;" cx="117.329" cy="163.959" r="43.015"/>
<g>
	<path style="fill:#507C5C;" d="M117.333,220.772c-31.326,0-56.812-25.486-56.812-56.812s25.486-56.812,56.812-56.812
		s56.812,25.486,56.812,56.812S148.659,220.772,117.333,220.772z M117.333,134.748c-16.108,0-29.212,13.105-29.212,29.212
		s13.105,29.212,29.212,29.212s29.212-13.105,29.212-29.212S133.44,134.748,117.333,134.748z"/>
	<path style="fill:#507C5C;" d="M117.333,356.553c-3.349,0-6.699-1.213-9.339-3.64C103.585,348.86,0,252.627,0,163.585
		c0-12.456,1.946-24.726,5.782-36.468c2.367-7.245,10.161-11.199,17.403-8.831c7.245,2.367,11.199,10.158,8.831,17.403
		c-2.931,8.97-4.417,18.356-4.417,27.896c0,62.659,65.101,134.794,89.763,159.869c4.119-4.165,9.356-9.628,15.205-16.12
		c5.101-5.664,13.826-6.12,19.49-1.016c5.662,5.102,6.118,13.828,1.016,19.49c-14.93,16.573-25.962,26.702-26.424,27.126
		C124.012,355.347,120.672,356.553,117.333,356.553z"/>
	<path style="fill:#507C5C;" d="M181.788,280.871c-2.652,0-5.334-0.763-7.699-2.357c-6.32-4.259-7.993-12.835-3.733-19.156
		c24.359-36.149,36.71-68.371,36.71-95.773c0-49.479-40.254-89.733-89.733-89.733c-19.25,0-37.597,6.002-53.056,17.358
		c-6.142,4.511-14.78,3.192-19.291-2.953c-4.513-6.142-3.191-14.779,2.953-19.291c20.231-14.859,44.227-22.712,69.395-22.712
		c64.698,0,117.333,52.635,117.333,117.333c0,32.996-13.935,70.408-41.421,111.196C190.58,278.736,186.223,280.871,181.788,280.871z
		"/>
</g>
<circle style="fill:#CFF09E;" cx="394.67" cy="163.959" r="43.015"/>
<g>
	<path style="fill:#507C5C;" d="M394.667,220.772c-31.326,0-56.812-25.486-56.812-56.812s25.486-56.812,56.812-56.812
		s56.812,25.486,56.812,56.812S425.993,220.772,394.667,220.772z M394.667,134.748c-16.108,0-29.212,13.105-29.212,29.212
		s13.105,29.212,29.212,29.212c16.107,0,29.212-13.105,29.212-29.212S410.775,134.748,394.667,134.748z"/>
	<path style="fill:#507C5C;" d="M394.667,356.553c-3.349,0-6.699-1.213-9.339-3.64c-4.409-4.053-107.994-100.286-107.994-189.328
		c0-12.456,1.946-24.726,5.782-36.468c2.367-7.245,10.16-11.199,17.403-8.831c7.244,2.368,11.199,10.158,8.831,17.403
		c-2.931,8.97-4.417,18.356-4.417,27.896c0,62.659,65.101,134.794,89.763,159.869c4.119-4.165,9.357-9.628,15.205-16.12
		c5.103-5.662,13.829-6.116,19.49-1.016c5.664,5.102,6.118,13.828,1.016,19.49c-14.932,16.573-25.964,26.702-26.426,27.126
		C401.346,355.347,398.007,356.553,394.667,356.553z"/>
	<path style="fill:#507C5C;" d="M459.122,280.871c-2.652,0-5.334-0.763-7.699-2.357c-6.32-4.259-7.993-12.835-3.733-19.156
		c24.359-36.149,36.71-68.371,36.71-95.773c0-49.479-40.254-89.733-89.733-89.733c-19.25,0-37.597,6.002-53.056,17.358
		c-6.142,4.51-14.78,3.192-19.291-2.953c-4.513-6.142-3.191-14.78,2.953-19.291c20.23-14.859,44.225-22.712,69.395-22.712
		c64.698,0,117.333,52.635,117.333,117.333c0,32.996-13.935,70.408-41.421,111.196C467.914,278.736,463.557,280.871,459.122,280.871
		z"/>
</g>
<g>
	<circle style="fill:#CFF09E;" cx="117.329" cy="426.41" r="25.543"/>
	<circle style="fill:#CFF09E;" cx="394.67" cy="426.41" r="25.543"/>
</g>
<g>
	<path style="fill:#507C5C;" d="M275.326,412.604H154.171c-5.603-14.906-19.999-25.543-36.838-25.543
		c-21.694,0-39.343,17.649-39.343,39.343c0,21.694,17.649,39.343,39.343,39.343c16.839,0,31.235-10.637,36.838-25.543h121.155
		c7.622,0,13.8-6.178,13.8-13.8S282.948,412.604,275.326,412.604z M117.333,438.147c-6.475,0-11.743-5.267-11.743-11.743
		c0-6.475,5.268-11.743,11.743-11.743s11.743,5.267,11.743,11.743C129.075,432.879,123.808,438.147,117.333,438.147z"/>
	<path style="fill:#507C5C;" d="M394.667,387.063c-16.839,0-31.235,10.637-36.838,25.543h-22.246c-7.622,0-13.8,6.178-13.8,13.8
		s6.178,13.8,13.8,13.8h22.246c5.603,14.905,19.999,25.543,36.838,25.543c21.694,0,39.343-17.649,39.343-39.343
		C434.01,404.712,416.361,387.063,394.667,387.063z M394.667,438.147c-6.475,0-11.743-5.267-11.743-11.743
		c0-6.475,5.267-11.743,11.743-11.743c6.475,0,11.743,5.267,11.743,11.743C406.41,432.879,401.142,438.147,394.667,438.147z"/>
</g>
<g>
</g>
<g>
</g>
<g>
</g>
<g>
</g>
<g>
</g>
<g>
</g>
<g>
</g>
<g>
</g>
<g>
</g>
<g>
</g>
<g>
</g>
<g>
</g>
<g>
</g>
<g>
</g>
<g>
</g>
</svg>
