<?xml version="1.0" encoding="iso-8859-1"?>
<!-- Generator: Adobe Illustrator 19.0.0, SVG Export Plug-In . SVG Version: 6.00 Build 0)  -->
<svg version="1.1" id="Layer_1" xmlns="http://www.w3.org/2000/svg" xmlns:xlink="http://www.w3.org/1999/xlink" x="0px" y="0px"
	 viewBox="0 0 512 512" style="enable-background:new 0 0 512 512;" xml:space="preserve">
<path style="fill:#FF9900;" d="M441.708,125.039H287.131c-8.893,0-16.102-7.209-16.102-16.102s7.209-16.102,16.102-16.102h154.578
	c8.893,0,16.102,7.209,16.102,16.102S450.601,125.039,441.708,125.039z"/>
<g>
	<path style="fill:#FFDB2D;" d="M224.87,125.039H70.293c-8.893,0-16.102-7.209-16.102-16.102S61.4,92.835,70.293,92.835H224.87
		c8.893,0,16.102,7.209,16.102,16.102S233.763,125.039,224.87,125.039z"/>
	<path style="fill:#FFDB2D;" d="M310.146,497.528c0,0-109.363,0-109.364,0c-9.897,0-17.465-8.867-15.898-18.635l54.317-340.64
		c2.881-18.081,29.642-18.095,32.526,0l54.317,340.64C327.611,488.661,320.043,497.528,310.146,497.528z"/>
</g>
<g>
	<path style="fill:#FF9900;" d="M326.043,478.893l-54.317-340.64c-1.407-8.829-8.499-13.333-15.726-13.546v372.821
		c27.161,0,54.145,0,54.145,0C320.043,497.528,327.611,488.661,326.043,478.893z"/>
	<path style="fill:#FF9900;" d="M124.753,286.057H16.113c-11.006,0-18.781-10.826-15.254-21.258l54.32-160.699
		c2.211-6.543,8.348-10.946,15.254-10.946s13.042,4.403,15.254,10.946l54.32,160.697
		C143.532,275.226,135.766,286.057,124.753,286.057z M38.554,253.853h63.76l-31.881-94.313L38.554,253.853z"/>
</g>
<path style="fill:#FFDB2D;" d="M256,93.908c-8.893,0-16.102-7.209-16.102-16.102V30.574c0-8.893,7.209-16.102,16.102-16.102
	c8.893,0,16.102,7.209,16.102,16.102v47.232C272.102,86.699,264.893,93.908,256,93.908z"/>
<g>
	<path style="fill:#FF9900;" d="M256,14.473L256,14.473v79.436l0,0c8.893,0,16.102-7.209,16.102-16.102V30.574
		C272.102,21.682,264.893,14.473,256,14.473z"/>
	<path style="fill:#FF9900;" d="M386.962,497.528H123.965c-8.893,0-16.102-7.209-16.102-16.102c0-8.892,7.209-16.102,16.102-16.102
		h262.997c8.893,0,16.102,7.209,16.102,16.102C403.064,490.319,395.855,497.528,386.962,497.528z"/>
	<polygon style="fill:#FF9900;" points="192.563,435.267 319.093,435.267 313.957,403.064 197.698,403.064 	"/>
</g>
<path style="fill:#FFDB2D;" d="M100.068,348.317H41.59c-22.684,0-41.073-18.389-41.073-41.073v-37.29
	c0-8.892,7.209-16.102,16.102-16.102h108.419c8.893,0,16.102,7.209,16.102,16.102v37.29
	C141.141,329.928,122.751,348.317,100.068,348.317z"/>
<path style="fill:#FF9900;" d="M256,156.169c-26.044,0-47.232-21.188-47.232-47.232S229.956,61.705,256,61.705
	s47.232,21.188,47.232,47.232S282.045,156.169,256,156.169z"/>
<g>
	<path style="fill:#FF4F19;" d="M495.888,286.057h-108.64c-11.006,0-18.781-10.826-15.254-21.258l54.32-160.697
		c2.211-6.543,8.348-10.946,15.254-10.946c6.906,0,13.042,4.403,15.254,10.946l54.32,160.697
		C514.667,275.226,506.899,286.057,495.888,286.057z M409.687,253.853h63.76l-31.881-94.313L409.687,253.853z"/>
	<path style="fill:#FF4F19;" d="M386.962,465.324H256v32.204h130.962c8.893,0,16.102-7.209,16.102-16.102
		C403.064,472.534,395.855,465.324,386.962,465.324z"/>
	<polygon style="fill:#FF4F19;" points="313.957,403.064 256,403.064 256,435.267 319.093,435.267 	"/>
</g>
<path style="fill:#FF9900;" d="M470.41,348.317h-58.478c-22.684,0-41.073-18.389-41.073-41.073v-37.29
	c0-8.892,7.209-16.102,16.102-16.102h108.419c8.893,0,16.102,7.209,16.102,16.102v37.29
	C511.483,329.928,493.094,348.317,470.41,348.317z"/>
<path style="fill:#FF4F19;" d="M256,61.705L256,61.705v94.464l0,0c26.044,0,47.232-21.188,47.232-47.232S282.045,61.705,256,61.705z
	"/>
<g>
</g>
<g>
</g>
<g>
</g>
<g>
</g>
<g>
</g>
<g>
</g>
<g>
</g>
<g>
</g>
<g>
</g>
<g>
</g>
<g>
</g>
<g>
</g>
<g>
</g>
<g>
</g>
<g>
</g>
</svg>
