<?xml version="1.0" encoding="iso-8859-1"?>
<!-- Generator: Adobe Illustrator 19.0.0, SVG Export Plug-In . SVG Version: 6.00 Build 0)  -->
<svg version="1.1" id="Layer_1" xmlns="http://www.w3.org/2000/svg" xmlns:xlink="http://www.w3.org/1999/xlink" x="0px" y="0px"
	 viewBox="0 0 512 512" style="enable-background:new 0 0 512 512;" xml:space="preserve">
<circle style="fill:#FFD15D;" cx="256" cy="256" r="256"/>
<path style="fill:#F9B54C;" d="M511.983,257.419L391.616,137.051l-28.375,54.372l-54.946-54.946L198.539,270.367l-78.565,107.541
	l133.994,134.068c66.193,0.522,132.549-24.452,183.053-74.957C486.647,387.393,511.626,322.462,511.983,257.419z"/>
<path style="fill:#324A5E;" d="M291.916,384H134.753c-11.583,0-20.973-9.39-20.973-20.975v-214.05
	c0-11.583,9.39-20.973,20.973-20.973h157.163c11.583,0,20.975,9.39,20.975,20.973v214.052C312.891,374.61,303.499,384,291.916,384z"
	/>
<g>
	<path style="fill:#2B3B4E;" d="M291.916,128h-78.438v256h78.438c11.583,0,20.975-9.39,20.975-20.975v-214.05
		C312.891,137.39,303.499,128,291.916,128z"/>
	<path style="fill:#2B3B4E;" d="M371.865,384h-23.999c-14.557,0-26.358-11.8-26.358-26.359V154.359
		c0-14.557,11.8-26.359,26.358-26.359h23.999c14.557,0,26.358,11.8,26.358,26.359v203.285C398.224,372.2,386.422,384,371.865,384z"
		/>
</g>
<rect x="137.481" y="154.721" style="fill:#4CDBC4;" width="151.704" height="37.926"/>
<rect x="213.471" y="154.721" style="fill:#39B79F;" width="75.707" height="37.926"/>
<g>
	<circle style="fill:#90DFAA;" cx="156.444" cy="240.192" r="14.222"/>
	<circle style="fill:#90DFAA;" cx="213.333" cy="240.192" r="14.222"/>
</g>
<circle style="fill:#69BC81;" cx="270.222" cy="240.192" r="14.222"/>
<g>
	<circle style="fill:#90DFAA;" cx="156.444" cy="290.771" r="14.222"/>
	<circle style="fill:#90DFAA;" cx="213.333" cy="290.771" r="14.222"/>
</g>
<circle style="fill:#69BC81;" cx="270.222" cy="290.771" r="14.222"/>
<g>
	<circle style="fill:#90DFAA;" cx="156.444" cy="341.333" r="14.222"/>
	<circle style="fill:#90DFAA;" cx="213.333" cy="341.333" r="14.222"/>
</g>
<g>
	<path style="fill:#69BC81;" d="M227.557,240.197c0-7.806-6.291-14.136-14.077-14.215v28.431
		C221.267,254.335,227.557,248.003,227.557,240.197z"/>
	<path style="fill:#69BC81;" d="M227.557,290.766c0-7.806-6.291-14.136-14.077-14.215v28.429
		C221.267,304.902,227.557,298.572,227.557,290.766z"/>
	<path style="fill:#69BC81;" d="M227.557,341.333c0-7.806-6.291-14.136-14.077-14.215v28.431
		C221.267,355.469,227.557,349.139,227.557,341.333z"/>
	<circle style="fill:#69BC81;" cx="270.222" cy="341.333" r="14.222"/>
</g>
<g>
</g>
<g>
</g>
<g>
</g>
<g>
</g>
<g>
</g>
<g>
</g>
<g>
</g>
<g>
</g>
<g>
</g>
<g>
</g>
<g>
</g>
<g>
</g>
<g>
</g>
<g>
</g>
<g>
</g>
</svg>
