<?xml version="1.0" encoding="iso-8859-1"?>
<!-- Generator: Adobe Illustrator 19.0.0, SVG Export Plug-In . SVG Version: 6.00 Build 0)  -->
<svg version="1.1" id="Layer_1" xmlns="http://www.w3.org/2000/svg" xmlns:xlink="http://www.w3.org/1999/xlink" x="0px" y="0px"
	 viewBox="0 0 512 512" style="enable-background:new 0 0 512 512;" xml:space="preserve">
<path style="fill:#EA5A20;" d="M256,8.17L223.319,256L256,503.83c136.873,0,247.83-110.957,247.83-247.83S392.873,8.17,256,8.17z"/>
<path style="fill:#F77A20;" d="M8.17,256c0,136.873,110.957,247.83,247.83,247.83V8.17C119.127,8.17,8.17,119.127,8.17,256z"/>
<path style="fill:#FFFFFF;" d="M256,471.149c-118.634,0-215.149-96.515-215.149-215.149S137.366,40.851,256,40.851
	S471.149,137.366,471.149,256S374.634,471.149,256,471.149z"/>
<path style="fill:#A3DDE9;" d="M256,40.851v430.298c118.634,0,215.149-96.515,215.149-215.149S374.634,40.851,256,40.851z"/>
<path style="fill:#C4F5FF;" d="M256,40.851C137.366,40.851,40.851,137.366,40.851,256S137.366,471.149,256,471.149
	c100.613,0,182.468-96.515,182.468-215.149S356.613,40.851,256,40.851z"/>
<path style="fill:#146A8A;" d="M298.454,231.489c-4.591-7.951-11.088-14.13-18.583-18.295l-15.914,28.538l8.377,14.51l32.672,0.487
	C305.147,248.157,303.044,239.441,298.454,231.489z"/>
<path style="fill:#EA5A20;" d="M256,272.885c-9.311,0-16.885-7.574-16.885-16.885c0-9.311,7.574-16.885,16.885-16.885
	c9.311,0,16.885,7.574,16.885,16.885C272.885,265.311,265.311,272.885,256,272.885z"/>
<path d="M437.019,74.981C388.668,26.628,324.38,0,256,0S123.332,26.628,74.981,74.981C26.628,123.333,0,187.621,0,256
	s26.628,132.667,74.981,181.019C123.332,485.372,187.62,512,256,512s132.668-26.628,181.019-74.981
	C485.372,388.667,512,324.38,512,256S485.372,123.333,437.019,74.981z M256,495.66c-132.149,0-239.66-107.51-239.66-239.66
	S123.851,16.34,256,16.34S495.66,123.851,495.66,256S388.149,495.66,256,495.66z"/>
<path d="M256,32.681C132.861,32.681,32.681,132.862,32.681,256S132.861,479.319,256,479.319S479.319,379.138,479.319,256
	S379.139,32.681,256,32.681z M256,462.979c-114.128,0-206.979-92.85-206.979-206.979S141.872,49.021,256,49.021
	S462.979,141.871,462.979,256S370.128,462.979,256,462.979z"/>
<path d="M403.029,171.943c-0.1-0.216-0.207-0.43-0.328-0.641c-0.148-0.256-0.308-0.499-0.478-0.733
	c-14.716-25.091-35.701-46.076-60.792-60.792c-0.233-0.17-0.477-0.331-0.733-0.478c-0.21-0.121-0.424-0.227-0.639-0.328
	C315.272,94.746,286.57,86.604,256,86.604c-30.571,0-59.274,8.142-84.061,22.369c-0.215,0.1-0.428,0.206-0.637,0.326
	c-0.256,0.148-0.499,0.308-0.733,0.478c-25.091,14.716-46.076,35.701-60.792,60.792c-0.17,0.233-0.331,0.477-0.478,0.733
	c-0.121,0.21-0.228,0.425-0.328,0.641C94.746,196.728,86.604,225.43,86.604,256c0,29.752,7.86,59.038,22.738,84.711
	c0.419,0.719,4.322,6.898,12.156,2.378l22.547-13.017c3.908-2.256,5.246-7.253,2.99-11.161c-2.256-3.909-7.253-5.245-11.161-2.99
	c0,0-9.383,5.417-16.303,9.413c-9.667-18.969-15.255-39.839-16.397-61.163h18.834c4.512,0,8.17-3.657,8.17-8.17
	c0-4.513-3.658-8.17-8.17-8.17h-18.845c1.159-21.917,6.949-42.625,16.408-61.162l16.303,9.413c1.287,0.743,2.692,1.096,4.077,1.096
	c2.824,0,5.57-1.465,7.083-4.086c2.256-3.908,0.917-8.904-2.99-11.161l-16.275-9.396c11.653-17.84,26.921-33.11,44.762-44.762
	l9.396,16.274c1.513,2.621,4.259,4.086,7.083,4.086c1.386,0,2.791-0.353,4.077-1.096c3.908-2.256,5.246-7.253,2.99-11.161
	l-9.413-16.303c18.538-9.459,39.246-15.25,61.162-16.408v18.843c0,4.513,3.658,8.17,8.17,8.17c4.512,0,8.17-3.657,8.17-8.17v-18.845
	c21.917,1.158,42.625,6.949,61.162,16.408l-9.412,16.303c-2.256,3.908-0.917,8.904,2.99,11.161c1.287,0.743,2.692,1.096,4.078,1.096
	c2.824,0,5.57-1.465,7.083-4.086l9.396-16.274c17.84,11.653,33.11,26.921,44.762,44.762l-16.275,9.396
	c-3.908,2.256-5.246,7.253-2.99,11.161c1.513,2.621,4.259,4.086,7.083,4.086c1.386,0,2.791-0.353,4.077-1.096l16.303-9.413
	c9.459,18.538,15.249,39.246,16.408,61.162h-18.842c-4.512,0-8.17,3.657-8.17,8.17c0,4.513,3.658,8.17,8.17,8.17h18.835
	c-1.142,21.308-6.724,42.183-16.377,61.174l-16.323-9.424c-3.909-2.256-8.904-0.918-11.161,2.99
	c-2.256,3.908-0.917,8.904,2.99,11.16l23.586,13.617c1.287,0.743,2.691,1.096,4.077,1.096c2.821,0,5.567-1.464,7.081-4.083
	c14.848-25.687,22.697-54.977,22.697-84.701C425.396,225.43,417.254,196.728,403.029,171.943z"/>
<path d="M283.838,206.053c-3.941-2.19-8.91-0.773-11.103,3.164l-12.617,22.625c-1.34-0.228-2.714-0.353-4.118-0.353
	c-13.516,0-24.511,10.996-24.511,24.511c0,1.529,0.148,3.024,0.417,4.476l-67.729,39.104c-3.908,2.256-5.246,7.253-2.99,11.16
	c1.513,2.621,4.259,4.086,7.083,4.086c1.387,0,2.791-0.353,4.077-1.096l67.741-39.11c4.286,3.667,9.842,5.89,15.912,5.89
	c10.523,0,19.516-6.667,22.983-15.997l25.9,0.387c0.041,0.001,0.083,0.001,0.124,0.001c4.45,0,8.093-3.57,8.167-8.035
	c0.171-10.316-2.473-20.503-7.645-29.462C300.358,218.446,292.856,211.064,283.838,206.053z M256,264.17
	c-4.506,0-8.17-3.665-8.17-8.17s3.665-8.17,8.17-8.17c1.419,0,2.754,0.365,3.917,1.003c0.021,0.012,0.038,0.025,0.059,0.037
	c0.003,0.001,0.007,0.003,0.009,0.004c2.494,1.4,4.184,4.068,4.184,7.126c0,0.036-0.005,0.07-0.005,0.105
	c0,0.005-0.001,0.011-0.001,0.016c0,0.001,0,0.002,0,0.003C264.096,260.572,260.463,264.17,256,264.17z M279.222,248.175
	c-1.052-3.113-2.711-5.949-4.84-8.363l8.248-14.789c3.473,2.982,6.436,6.546,8.749,10.552c2.313,4.007,3.917,8.354,4.763,12.853
	L279.222,248.175z"/>
<path d="M284.484,409.055h-56.967c-4.512,0-8.17,3.657-8.17,8.17c0,4.513,3.658,8.17,8.17,8.17h56.967c4.512,0,8.17-3.657,8.17-8.17
	C292.654,412.712,288.996,409.055,284.484,409.055z"/>
<path d="M273.59,392.715c4.512,0,8.17-3.657,8.17-8.17c0-4.513-3.658-8.17-8.17-8.17h-35.18c-4.512,0-8.17,3.657-8.17,8.17
	c0,4.513,3.658,8.17,8.17,8.17H273.59z"/>
<g>
</g>
<g>
</g>
<g>
</g>
<g>
</g>
<g>
</g>
<g>
</g>
<g>
</g>
<g>
</g>
<g>
</g>
<g>
</g>
<g>
</g>
<g>
</g>
<g>
</g>
<g>
</g>
<g>
</g>
</svg>
