<?xml version="1.0" encoding="iso-8859-1"?>
<!-- Generator: Adobe Illustrator 19.0.0, SVG Export Plug-In . SVG Version: 6.00 Build 0)  -->
<svg version="1.1" id="Layer_1" xmlns="http://www.w3.org/2000/svg" xmlns:xlink="http://www.w3.org/1999/xlink" x="0px" y="0px"
	 viewBox="0 0 496 496" style="enable-background:new 0 0 496 496;" xml:space="preserve">
<path style="fill:#EA5513;" d="M494.4,271.863c5.6-54.4-162.4-62.4-293.6-62.4s-189.6,18.4-196.8,62.4H494.4z"/>
<path style="fill:#B73B04;" d="M496,281.463c0,4-3.2,8-8,8H8c-4,0-8-3.2-8-8v-4.8c0-4,3.2-8,8-8h480c4,0,8,1.6,8,5.6V281.463z"/>
<path style="fill:#8E8E8E;" d="M495.2,287.863c0,4-3.2,6.4-6.4,6.4H6.4c-3.2,0-6.4-2.4-6.4-6.4l0,0c0-4,3.2-6.4,6.4-6.4H488
	C492,280.663,495.2,283.863,495.2,287.863L495.2,287.863z"/>
<path style="fill:#CE3F00;" d="M494.4,271.863c-7.2-44-162.4-62.4-293.6-62.4s-189.6,18.4-196.8,62.4H494.4z"/>
<path d="M52.8,286.263c0-20.8,16.8-36.8,36.8-36.8c20.8,0,36.8,16.8,36.8,36.8"/>
<path style="fill:#8E8E8E;" d="M128,286.263h-3.2c0-20-16-35.2-35.2-35.2c-20,0-35.2,16-35.2,35.2h-3.2c0-21.6,17.6-38.4,38.4-38.4
	S128,264.663,128,286.263z"/>
<circle style="fill:#203547;" cx="89.6" cy="287.863" r="33.6"/>
<path style="fill:#122130;" d="M112.8,263.863c12.8,12.8,12.8,34.4,0,47.2c-12.8,12.8-34.4,12.8-47.2,0"/>
<circle style="fill:#CE3F00;" cx="89.6" cy="287.863" r="20.8"/>
<path style="fill:#B73B04;" d="M104,272.663c8,8,8,21.6,0,29.6s-21.6,8-29.6,0"/>
<circle style="fill:#CED8DD;" cx="89.6" cy="287.863" r="18.4"/>
<path style="fill:#B2BBC1;" d="M102.4,274.263c7.2,7.2,7.2,19.2,0,26.4c-7.2,7.2-19.2,7.2-26.4,0"/>
<path style="opacity:0.2;fill:#888F91;enable-background:new    ;" d="M98.4,287.863c0,4.8-4,9.6-8.8,9.6s-8.8-5.6-8.8-9.6
	c0-4.8,4-8.8,8.8-8.8S98.4,283.063,98.4,287.863z"/>
<circle style="fill:#E7EFF2;" cx="89.6" cy="287.863" r="8.8"/>
<path style="fill:#DAE6EA;" d="M89.6,279.063c4.8,0,8.8,4,8.8,8.8s-4,8.8-8.8,8.8"/>
<path style="fill:#666E70;" d="M89.6,269.463c-0.8,0-1.6,0-2.4,0c0,2.4,1.6,4.8,2.4,4.8s2.4-1.6,2.4-4.8
	C91.2,269.463,90.4,269.463,89.6,269.463z"/>
<path style="fill:#535A5B;" d="M89.6,274.263c0.8,0,2.4-1.6,2.4-4.8c-0.8,0-1.6,0-2.4,0"/>
<path style="fill:#666E70;" d="M87.2,305.463c1.6,0,3.2,0,4.8,0c0-2.4-1.6-4.8-2.4-4.8S87.2,303.063,87.2,305.463z"/>
<path style="fill:#535A5B;" d="M92,305.463c0-2.4-1.6-4.8-2.4-4.8"/>
<path style="fill:#666E70;" d="M75.2,276.663c2.4,1.6,4,2.4,4.8,1.6s0-3.2-1.6-4.8C76.8,274.263,76,275.063,75.2,276.663z"/>
<path style="fill:#535A5B;" d="M80,278.263c0.8-0.8,0-3.2-1.6-4.8"/>
<path style="fill:#666E70;" d="M104,299.063c-2.4-1.6-4-2.4-4.8-1.6s0,3.2,1.6,4.8c0.8-0.8,1.6-0.8,1.6-1.6
	C103.2,299.863,103.2,299.063,104,299.063z"/>
<path style="fill:#535A5B;" d="M102.4,300.663c0.8-0.8,0.8-1.6,1.6-1.6c-2.4-1.6-4-2.4-4.8-1.6"/>
<path style="fill:#666E70;" d="M71.2,290.263c2.4,0,4.8-1.6,4.8-2.4s-1.6-2.4-4.8-2.4c0,0.8,0,1.6,0,2.4S71.2,289.463,71.2,290.263z
	"/>
<path style="fill:#535A5B;" d="M76,287.863c0-0.8-1.6-2.4-4.8-2.4c0,0.8,0,1.6,0,2.4"/>
<path style="fill:#666E70;" d="M103.2,287.863c0,0.8,1.6,2.4,4.8,2.4c0-1.6,0-3.2,0-4.8C104.8,285.463,103.2,286.263,103.2,287.863z
	"/>
<path style="fill:#535A5B;" d="M108,285.463c-2.4,0-4.8,1.6-4.8,2.4"/>
<path style="fill:#666E70;" d="M75.2,299.063c0.8,1.6,2.4,2.4,3.2,3.2c1.6-2.4,2.4-4,1.6-4.8
	C79.2,296.663,76.8,297.463,75.2,299.063z"/>
<path style="fill:#535A5B;" d="M78.4,302.263c1.6-2.4,2.4-4,1.6-4.8"/>
<path style="fill:#666E70;" d="M100.8,272.663c-1.6,2.4-2.4,4-1.6,4.8s3.2,0,4.8-1.6C103.2,275.063,101.6,274.263,100.8,272.663z"/>
<path style="fill:#535A5B;" d="M100.8,272.663c-1.6,2.4-2.4,4-1.6,4.8"/>
<path d="M362.4,286.263c0-20.8,16.8-36.8,36.8-36.8c20.8,0,36.8,16.8,36.8,36.8"/>
<path style="fill:#8E8E8E;" d="M437.6,286.263h-3.2c0-20-16-35.2-35.2-35.2s-35.2,16-35.2,35.2h-3.2c0-21.6,17.6-38.4,38.4-38.4
	C420.8,247.863,437.6,264.663,437.6,286.263z"/>
<circle style="fill:#203547;" cx="399.2" cy="287.863" r="33.6"/>
<path style="fill:#122130;" d="M423.2,263.863c12.8,12.8,12.8,34.4,0,47.2c-12.8,12.8-34.4,12.8-47.2,0"/>
<circle style="fill:#CE3F00;" cx="399.2" cy="287.863" r="20.8"/>
<path style="fill:#B73B04;" d="M414.4,272.663c8,8,8,21.6,0,29.6s-21.6,8-29.6,0"/>
<circle style="fill:#CED8DD;" cx="399.2" cy="287.863" r="18.4"/>
<path style="fill:#B2BBC1;" d="M412.8,274.263c7.2,7.2,7.2,19.2,0,26.4c-7.2,7.2-19.2,7.2-26.4,0"/>
<path style="opacity:0.2;fill:#888F91;enable-background:new    ;" d="M408,287.863c0,4.8-4,9.6-8.8,9.6s-8.8-5.6-8.8-9.6
	c0-4.8,4-8.8,8.8-8.8S408,283.063,408,287.863z"/>
<circle style="fill:#E7EFF2;" cx="399.2" cy="287.863" r="8.8"/>
<path style="fill:#DAE6EA;" d="M399.2,279.063c4.8,0,8.8,4,8.8,8.8s-4,8.8-8.8,8.8"/>
<path style="fill:#666E70;" d="M399.2,269.463c-0.8,0-1.6,0-2.4,0c0,2.4,1.6,4.8,2.4,4.8s2.4-1.6,2.4-4.8
	C400.8,269.463,400,269.463,399.2,269.463z"/>
<path style="fill:#535A5B;" d="M399.2,274.263c0.8,0,2.4-1.6,2.4-4.8c-0.8,0-1.6,0-2.4,0"/>
<path style="fill:#666E70;" d="M396.8,305.463c1.6,0,3.2,0,4.8,0c0-2.4-1.6-4.8-2.4-4.8C398.4,301.463,397.6,303.063,396.8,305.463z
	"/>
<path style="fill:#535A5B;" d="M401.6,305.463c0-2.4-1.6-4.8-2.4-4.8"/>
<path style="fill:#666E70;" d="M384.8,276.663c2.4,1.6,4,2.4,4.8,1.6s0-3.2-1.6-4.8C387.2,274.263,385.6,275.063,384.8,276.663z"/>
<path style="fill:#535A5B;" d="M389.6,278.263c0.8-0.8,0-3.2-1.6-4.8"/>
<path style="fill:#666E70;" d="M413.6,299.063c-2.4-1.6-4-2.4-4.8-1.6s0,3.2,1.6,4.8c0.8-0.8,1.6-0.8,1.6-1.6
	C412.8,299.863,413.6,299.063,413.6,299.063z"/>
<path style="fill:#535A5B;" d="M412.8,300.663c0.8-0.8,0.8-1.6,1.6-1.6c-2.4-1.6-4-2.4-4.8-1.6"/>
<path style="fill:#666E70;" d="M380.8,290.263c2.4,0,4.8-1.6,4.8-2.4s-1.6-2.4-4.8-2.4c0,0.8,0,1.6,0,2.4
	S380.8,289.463,380.8,290.263z"/>
<path style="fill:#535A5B;" d="M385.6,287.863c0-0.8-1.6-2.4-4.8-2.4c0,0.8,0,1.6,0,2.4"/>
<path style="fill:#666E70;" d="M412.8,287.863c0,0.8,1.6,2.4,4.8,2.4c0-1.6,0-3.2,0-4.8C415.2,285.463,412.8,286.263,412.8,287.863z
	"/>
<path style="fill:#535A5B;" d="M417.6,285.463c-2.4,0-4.8,1.6-4.8,2.4"/>
<path style="fill:#666E70;" d="M384.8,299.063c0.8,1.6,2.4,2.4,3.2,3.2c1.6-2.4,2.4-4,1.6-4.8
	C388.8,296.663,387.2,297.463,384.8,299.063z"/>
<path style="fill:#535A5B;" d="M388,302.263c1.6-2.4,2.4-4,1.6-4.8"/>
<path style="fill:#666E70;" d="M410.4,272.663c-1.6,2.4-2.4,4-1.6,4.8s3.2,0,4.8-1.6C412.8,275.063,412,274.263,410.4,272.663z"/>
<path style="fill:#535A5B;" d="M410.4,272.663c-1.6,2.4-2.4,4-1.6,4.8"/>
<path style="fill:#7F2704;" d="M132.8,224.663h188.8c4,0,8-3.2,8-8v-4.8c-41.6-4-86.4-2.4-128.8-2.4c-28.8,0-53.6,0.8-76,2.4v4.8
	C124.8,221.463,128.8,224.663,132.8,224.663z"/>
<path style="fill:#CE3F00;" d="M354.4,220.663c0.8,1.6-8.8,3.2-10.4,4.8l0,0c-1.6,0.8-7.2-1.6-8-2.4l-32-43.2
	c-0.8-1.6-0.8-3.2,0.8-4.8l0,0c1.6-0.8,3.2-0.8,4.8,0.8L354.4,220.663z"/>
<polygon style="fill:#EA5513;" points="52,247.063 11.2,247.063 11.2,260.663 "/>
<path style="fill:#F7DD6D;" d="M15.2,264.663c0,2.4-1.6,4-4,4l0,0c-2.4,0-4-1.6-4-4v-13.6c0-2.4,1.6-4,4-4l0,0c2.4,0,4,1.6,4,4
	V264.663z"/>
<path style="fill:#E2C447;" d="M11.2,247.063L11.2,247.063c2.4,0,4,1.6,4,4v13.6c0,2.4-1.6,4-4,4l0,0"/>
<path style="fill:#CE3F00;" d="M140.8,200.663c-2.4-0.8-4.8-0.8-7.2-0.8c-23.2,0-42.4,15.2-42.4,34.4s8,6.4,31.2,6.4
	c2.4,0,16,28.8,18.4,28V200.663z"/>
<g>
	<ellipse style="fill:#4C5456;" cx="264" cy="239.063" rx="12" ry="4"/>
	<ellipse style="fill:#4C5456;" cx="166.4" cy="239.063" rx="12" ry="4"/>
</g>
<path style="fill:#E2C447;" d="M475.2,250.263c0,2.4-1.6,4.8-4.8,4.8l0,0c-2.4,0-4.8-1.6-4.8-4.8v-12c0-2.4,2.4-4.8,4.8-4.8l0,0
	c2.4,0,4.8,2.4,4.8,4.8V250.263z"/>
<path style="fill:#CE3F00;" d="M470.4,233.463c-0.8,0-1.6,0-2.4,0c-8,0-13.6,5.6-13.6,12.8s6.4,12.8,13.6,12.8c0.8,0,1.6,0,2.4,0
	V233.463z"/>
<g>
	<path style="fill:#CEA157;" d="M252,224.663l-4-12c0-4-3.2-8-8-8h-4c-4,0-8,3.2-8,8v12H252z"/>
	<path style="fill:#CEA157;" d="M240.8,199.063c0,3.2-3.2,6.4-6.4,6.4l0,0c-3.2,0-6.4-3.2-6.4-6.4v-9.6c0-3.2,3.2-6.4,6.4-6.4l0,0
		c3.2,0,6.4,3.2,6.4,6.4V199.063z"/>
	<path style="fill:#CEA157;" d="M165.6,224.663l-4-12c0-4-3.2-8-8-8h-4c-4,0-8,3.2-8,8v12H165.6z"/>
	<path style="fill:#CEA157;" d="M153.6,199.063c0,3.2-3.2,6.4-6.4,6.4l0,0c-3.2,0-6.4-3.2-6.4-6.4v-9.6c0-3.2,3.2-6.4,6.4-6.4l0,0
		c3.2,0,6.4,3.2,6.4,6.4V199.063z"/>
</g>
<path style="fill:#203547;" d="M296,220.663c-0.8,0.8-2.4,0.8-3.2,0l0,0c-0.8-0.8-0.8-2.4,0-3.2l13.6-15.2c0.8-0.8,2.4-0.8,3.2,0
	l0,0c0.8,0.8,0.8,2.4,0,3.2L296,220.663z"/>
<g>
</g>
<g>
</g>
<g>
</g>
<g>
</g>
<g>
</g>
<g>
</g>
<g>
</g>
<g>
</g>
<g>
</g>
<g>
</g>
<g>
</g>
<g>
</g>
<g>
</g>
<g>
</g>
<g>
</g>
</svg>
