<?xml version="1.0" encoding="iso-8859-1"?>
<!-- Generator: Adobe Illustrator 19.0.0, SVG Export Plug-In . SVG Version: 6.00 Build 0)  -->
<svg version="1.1" id="Layer_1" xmlns="http://www.w3.org/2000/svg" xmlns:xlink="http://www.w3.org/1999/xlink" x="0px" y="0px"
	 viewBox="0 0 512 512" style="enable-background:new 0 0 512 512;" xml:space="preserve">
<path style="fill:#F95428;" d="M214.957,189.727H363.65h79.121c33.209,0,60.133,26.924,60.133,60.157v112.075h-33.003
	c-1.42-44.82-38.208-80.735-83.38-80.735s-81.96,35.915-83.38,80.735h-94.288c-1.42-44.82-38.196-80.735-83.38-80.735
	c-45.172,0-81.948,35.915-83.368,80.735H9.104v-73.346c0-48.29,34.616-88.5,80.383-97.151c5.994-1.141,12.182-1.735,18.503-1.735
	L214.957,189.727L214.957,189.727z"/>
<path style="fill:#D33924;" d="M184.121,191.462c5.994-1.141,12.182-1.735,18.503-1.735H107.99c-6.321,0-12.509,0.595-18.503,1.735
	c-45.767,8.651-80.383,48.861-80.383,97.151v73.346h94.635v-73.346C103.738,240.323,138.355,200.113,184.121,191.462z"/>
<path style="fill:#2197D8;" d="M214.957,63.917v125.81H107.99c-6.321,0-12.509,0.595-18.503,1.735l-0.34-1.735
	C89.147,120.252,145.482,63.917,214.957,63.917z"/>
<path style="fill:#2BA5F7;" d="M363.65,104.685v85.042H214.957V63.917h107.925C345.402,63.917,363.65,82.165,363.65,104.685z"/>
<g>
	<path style="fill:#F7B239;" d="M386.521,325.632c21.512,0,39.021,17.508,39.021,39.021c0,21.524-17.508,39.021-39.021,39.021
		c-21.512,0-39.021-17.496-39.021-39.021C347.501,343.14,365.009,325.632,386.521,325.632z"/>
	<path style="fill:#F7B239;" d="M125.474,325.632c21.524,0,39.021,17.508,39.021,39.021c0,21.524-17.496,39.021-39.021,39.021
		c-21.512,0-39.021-17.496-39.021-39.021C86.453,343.14,103.962,325.632,125.474,325.632z"/>
</g>
<g>
	<path style="fill:#999999;" d="M469.901,361.959c0.036,0.886,0.049,1.796,0.049,2.694c0,46.082-37.358,83.428-83.428,83.428
		s-83.428-37.346-83.428-83.428c0-0.898,0.012-1.808,0.049-2.694c1.42-44.82,38.208-80.735,83.38-80.735
		S468.482,317.138,469.901,361.959z M425.542,364.652c0-21.512-17.508-39.021-39.021-39.021c-21.512,0-39.021,17.508-39.021,39.021
		c0,21.524,17.508,39.021,39.021,39.021C408.034,403.673,425.542,386.177,425.542,364.652z"/>
	<path style="fill:#999999;" d="M208.854,361.959c0.036,0.886,0.049,1.796,0.049,2.694c0,46.082-37.346,83.428-83.428,83.428
		c-46.07,0-83.416-37.346-83.416-83.428c0-0.898,0.012-1.808,0.049-2.694c1.42-44.82,38.196-80.735,83.368-80.735
		C170.658,281.224,207.434,317.138,208.854,361.959z M164.494,364.652c0-21.512-17.496-39.021-39.021-39.021
		c-21.512,0-39.021,17.508-39.021,39.021c0,21.524,17.508,39.021,39.021,39.021C146.998,403.673,164.494,386.177,164.494,364.652z"
		/>
</g>
<g>
	<path style="fill:#FFFFFF;" d="M472.57,303.197c-5.027,0-9.1-4.074-9.1-9.1v-44.212c0-11.427-9.286-20.724-20.701-20.724
		c-5.027,0-9.1-4.074-9.1-9.1s4.073-9.1,9.1-9.1c21.45,0,38.9,17.461,38.9,38.924v44.212
		C481.67,299.123,477.597,303.197,472.57,303.197z"/>
	<path style="fill:#FFFFFF;" d="M333.317,144.864c-5.027,0-9.1-4.074-9.1-9.1v-31.079c0-0.723-0.612-1.335-1.335-1.335
		c-5.027,0-9.1-4.074-9.1-9.1c0-5.026,4.073-9.1,9.1-9.1c10.771,0,19.535,8.764,19.535,19.535v31.079
		C342.417,140.79,338.342,144.864,333.317,144.864z"/>
	<circle style="fill:#FFFFFF;" cx="333.313" cy="163.059" r="9.1"/>
</g>
<g>
	<path style="fill:#333333;" d="M442.766,180.631h-70.02V104.68c0-27.494-22.368-49.862-49.862-49.862H214.96
		c-72.562,0-131.915,57.583-134.792,129.451C34.063,196.574,0,238.689,0,288.619v73.346c0,5.026,4.073,9.1,9.1,9.1h24.1
		c3.306,48.038,43.417,86.117,92.278,86.117s88.973-38.079,92.278-86.117h76.485c3.306,48.038,43.417,86.117,92.278,86.117
		s88.973-38.079,92.278-86.117H502.9c5.027,0,9.1-4.074,9.1-9.1V249.879C512,211.695,480.942,180.631,442.766,180.631z
		 M354.546,104.68v75.951H224.06V73.019h98.824C340.343,73.019,354.546,87.223,354.546,104.68z M205.86,73.371v107.259h-97.873
		c-3.173,0-6.312,0.146-9.415,0.415C102.808,123.738,148.607,77.808,205.86,73.371z M125.479,438.982
		c-40.983,0-74.326-33.342-74.326-74.326s33.342-74.326,74.326-74.326s74.326,33.342,74.326,74.326S166.461,438.982,125.479,438.982
		z M386.521,438.982c-40.983,0-74.326-33.342-74.326-74.326s33.342-74.326,74.326-74.326s74.326,33.342,74.326,74.326
		S427.504,438.982,386.521,438.982z M493.8,352.865h-15.531c-5.813-45.467-44.726-80.735-91.748-80.735
		s-85.935,35.267-91.748,80.735h-77.545c-5.813-45.467-44.726-80.735-91.748-80.735s-85.935,35.267-91.748,80.735H18.2v-64.246
		c0-49.51,40.278-89.787,89.787-89.787h334.779c28.139,0,51.035,22.9,51.035,51.047v102.986H493.8z"/>
	<path style="fill:#333333;" d="M125.479,316.534c-26.534,0-48.122,21.588-48.122,48.122c0,26.534,21.588,48.122,48.122,48.122
		S173.6,391.19,173.6,364.656C173.6,338.122,152.013,316.534,125.479,316.534z M125.479,394.578
		c-16.5,0-29.922-13.423-29.922-29.922c0-16.499,13.423-29.922,29.922-29.922s29.922,13.423,29.922,29.922
		C155.401,381.155,141.979,394.578,125.479,394.578z"/>
	<path style="fill:#333333;" d="M386.521,316.534c-26.534,0-48.122,21.588-48.122,48.122c0,26.534,21.588,48.122,48.122,48.122
		c26.534,0,48.122-21.587,48.122-48.122C434.643,338.122,413.056,316.534,386.521,316.534z M386.521,394.578
		c-16.5,0-29.922-13.423-29.922-29.922c0-16.499,13.423-29.922,29.922-29.922c16.499,0,29.922,13.423,29.922,29.922
		C416.443,381.155,403.02,394.578,386.521,394.578z"/>
	<path style="fill:#333333;" d="M297.872,229.046h-36.4c-5.027,0-9.1,4.074-9.1,9.1s4.073,9.1,9.1,9.1h36.4
		c5.027,0,9.1-4.074,9.1-9.1S302.899,229.046,297.872,229.046z"/>
</g>
<g>
</g>
<g>
</g>
<g>
</g>
<g>
</g>
<g>
</g>
<g>
</g>
<g>
</g>
<g>
</g>
<g>
</g>
<g>
</g>
<g>
</g>
<g>
</g>
<g>
</g>
<g>
</g>
<g>
</g>
</svg>
