<?xml version="1.0" encoding="iso-8859-1"?>
<!-- Generator: Adobe Illustrator 19.0.0, SVG Export Plug-In . SVG Version: 6.00 Build 0)  -->
<svg version="1.1" id="Layer_1" xmlns="http://www.w3.org/2000/svg" xmlns:xlink="http://www.w3.org/1999/xlink" x="0px" y="0px"
	 viewBox="0 0 504 504" style="enable-background:new 0 0 504 504;" xml:space="preserve">
<path style="fill:#2ABC7A;" d="M492.8,266.4h-1.6c-17.6-42.4-52-49.6-107.2-55.2l-92-73.6c-1.6-1.6-3.2-1.6-5.6-1.6H65.6
	c-3.2,0-5.6,1.6-7.2,4l-47.2,80.8c-1.6,2.4-1.6,5.6,0,8.8l7.2,12.8h-0.8c-4.8,0-8.8,4-8.8,8.8v77.6c0,4.8,4,8.8,8.8,8.8H412h29.6
	h51.2c4.8,0,8.8-4,8.8-8.8v-53.6C500.8,270.4,497.6,266.4,492.8,266.4z"/>
<path style="fill:#21AA6F;" d="M492.8,266.4h-1.6c-8.8-28-52-49.6-107.2-55.2l-92-73.6c-1.6-1.6-3.2,2.4-4.8,2.4H80.8
	c-3.2,0-20.8-2.4-22.4,0l-47.2,80.8c-1.6,2.4-1.6,5.6,0,8.8l7.2,12.8h-0.8c-4.8,0-8.8,4-8.8,8.8v77.6c0,4.8,4,8.8,8.8,8.8H412h29.6
	h51.2c4.8,0,8.8-4,8.8-8.8v-53.6C500.8,270.4,497.6,266.4,492.8,266.4z"/>
<path style="fill:#19935C;" d="M8.8,294.4V328c0,4.8,4,8.8,8.8,8.8H412h29.6h51.2c4.8,0,8.8-4,8.8-8.8v-33.6H8.8z"/>
<path style="fill:#108266;" d="M504,333.6c0,4-3.2,8-8,8H8c-4,0-8-3.2-8-8l0,0c0-4,3.2-8,8-8h488.8C500.8,325.6,504,329.6,504,333.6
	L504,333.6z"/>
<path d="M51.2,325.6c0-24.8,20-45.6,45.6-45.6c24.8,0,45.6,20,45.6,45.6"/>
<path style="fill:#108266;" d="M143.2,325.6H140c0-24-19.2-43.2-43.2-43.2s-43.2,19.2-43.2,43.2h-4c0-25.6,20.8-47.2,47.2-47.2
	C122.4,278.4,143.2,299.2,143.2,325.6z"/>
<circle style="fill:#203547;" cx="96.8" cy="327.2" r="40.8"/>
<path style="fill:#122130;" d="M125.6,298.4c16,16,16,41.6,0,57.6S84,372,68,356"/>
<circle style="fill:#21AA6F;" cx="96.8" cy="327.2" r="25.6"/>
<path style="fill:#118E55;" d="M114.4,308.8c10.4,10.4,10.4,26.4,0,36c-10.4,10.4-26.4,10.4-36,0"/>
<circle style="fill:#CED8DD;" cx="96.8" cy="327.2" r="22.4"/>
<path style="fill:#B2BBC1;" d="M112,311.2c8.8,8.8,8.8,23.2,0,32s-23.2,8.8-32,0"/>
<path style="opacity:0.2;fill:#888F91;enable-background:new    ;" d="M107.2,327.2c0,5.6-4.8,12-10.4,12s-10.4-6.4-10.4-12
	s4.8-10.4,10.4-10.4C102.4,316.8,107.2,321.6,107.2,327.2z"/>
<circle style="fill:#E7EFF2;" cx="96.8" cy="327.2" r="10.4"/>
<path style="fill:#DAE6EA;" d="M96.8,316.8c5.6,0,10.4,4.8,10.4,10.4s-4.8,10.4-10.4,10.4"/>
<path style="fill:#666E70;" d="M96.8,304.8c-0.8,0-2.4,0-3.2,0c0.8,3.2,1.6,5.6,3.2,5.6s2.4-2.4,3.2-5.6
	C98.4,304.8,97.6,304.8,96.8,304.8z"/>
<path style="fill:#535A5B;" d="M96.8,310.4c1.6,0,2.4-2.4,3.2-5.6c-0.8,0-1.6,0-3.2,0"/>
<path style="fill:#666E70;" d="M93.6,349.6c1.6,0,4,0,6.4,0c-0.8-3.2-1.6-5.6-3.2-5.6C95.2,344,93.6,346.4,93.6,349.6z"/>
<path style="fill:#535A5B;" d="M99.2,349.6c-0.8-3.2-1.6-5.6-3.2-5.6"/>
<path style="fill:#666E70;" d="M78.4,313.6c2.4,1.6,4.8,3.2,6.4,1.6c0.8-0.8,0-3.2-1.6-6.4C80.8,310.4,80,312,78.4,313.6z"/>
<path style="fill:#535A5B;" d="M84.8,315.2c0.8-0.8,0-3.2-1.6-6.4"/>
<path style="fill:#666E70;" d="M114.4,340.8c-2.4-1.6-4.8-2.4-6.4-1.6c-0.8,0.8,0,3.2,1.6,6.4c0.8-0.8,1.6-1.6,2.4-1.6
	C112.8,342.4,113.6,341.6,114.4,340.8z"/>
<path style="fill:#535A5B;" d="M112,343.2c0.8-0.8,1.6-1.6,1.6-2.4c-2.4-1.6-4.8-2.4-6.4-1.6"/>
<path style="fill:#666E70;" d="M74.4,330.4c3.2-0.8,5.6-1.6,5.6-3.2s-2.4-2.4-5.6-3.2c0,0.8,0,1.6,0,3.2
	C73.6,328,74.4,329.6,74.4,330.4z"/>
<path style="fill:#535A5B;" d="M80,327.2c0-1.6-2.4-2.4-5.6-3.2c0,0.8,0,1.6,0,3.2"/>
<path style="fill:#666E70;" d="M112.8,327.2c0,1.6,2.4,2.4,5.6,3.2c0-2.4,0-4,0-6.4C115.2,324.8,112.8,325.6,112.8,327.2z"/>
<path style="fill:#535A5B;" d="M118.4,324c-3.2,0.8-5.6,1.6-5.6,3.2"/>
<path style="fill:#666E70;" d="M78.4,340.8c1.6,1.6,2.4,3.2,4,4c1.6-2.4,2.4-4.8,1.6-6.4C84,338.4,80.8,339.2,78.4,340.8z"/>
<path style="fill:#535A5B;" d="M83.2,344.8c1.6-2.4,2.4-4.8,1.6-6.4"/>
<path style="fill:#666E70;" d="M110.4,309.6c-1.6,2.4-3.2,4.8-1.6,6.4c0.8,0.8,3.2,0,6.4-1.6C112.8,312,112,310.4,110.4,309.6z"/>
<path style="fill:#535A5B;" d="M110.4,309.6c-1.6,2.4-3.2,4.8-1.6,6.4"/>
<path d="M364.8,325.6c0-24.8,20-45.6,45.6-45.6c24.8,0,45.6,20,45.6,45.6"/>
<path style="fill:#108266;" d="M457.6,325.6h-4c0-24-19.2-43.2-43.2-43.2s-43.2,19.2-43.2,43.2h-4c0-25.6,20.8-47.2,47.2-47.2
	C436,278.4,457.6,299.2,457.6,325.6z"/>
<circle style="fill:#203547;" cx="410.4" cy="327.2" r="40.8"/>
<path style="fill:#122130;" d="M439.2,298.4c16,16,16,41.6,0,57.6s-41.6,16-57.6,0"/>
<circle style="fill:#21AA6F;" cx="410.4" cy="327.2" r="25.6"/>
<path style="fill:#118E55;" d="M428.8,308.8c10.4,10.4,10.4,26.4,0,36c-10.4,10.4-26.4,10.4-36,0"/>
<circle style="fill:#CED8DD;" cx="410.4" cy="327.2" r="22.4"/>
<path style="fill:#B2BBC1;" d="M426.4,311.2c8.8,8.8,8.8,23.2,0,32s-23.2,8.8-32,0"/>
<path style="opacity:0.2;fill:#888F91;enable-background:new    ;" d="M420.8,327.2c0,5.6-4.8,12-10.4,12s-10.4-6.4-10.4-12
	s4.8-10.4,10.4-10.4C416,316.8,420.8,321.6,420.8,327.2z"/>
<circle style="fill:#E7EFF2;" cx="410.4" cy="327.2" r="10.4"/>
<path style="fill:#DAE6EA;" d="M410.4,316.8c5.6,0,10.4,4.8,10.4,10.4s-4.8,10.4-10.4,10.4"/>
<path style="fill:#666E70;" d="M410.4,304.8c-0.8,0-2.4,0-3.2,0c0.8,3.2,1.6,5.6,3.2,5.6s2.4-2.4,3.2-5.6
	C412,304.8,411.2,304.8,410.4,304.8z"/>
<path style="fill:#535A5B;" d="M410.4,310.4c1.6,0,2.4-2.4,3.2-5.6c-0.8,0-1.6,0-3.2,0"/>
<path style="fill:#666E70;" d="M407.2,349.6c1.6,0,4,0,6.4,0c-0.8-3.2-1.6-5.6-3.2-5.6S408,346.4,407.2,349.6z"/>
<path style="fill:#535A5B;" d="M413.6,349.6c-0.8-3.2-1.6-5.6-3.2-5.6"/>
<path style="fill:#666E70;" d="M392,313.6c2.4,1.6,4.8,3.2,6.4,1.6c0.8-0.8,0-3.2-1.6-6.4C395.2,310.4,393.6,312,392,313.6z"/>
<path style="fill:#535A5B;" d="M398.4,315.2c0.8-0.8,0-3.2-1.6-6.4"/>
<path style="fill:#666E70;" d="M428,340.8c-2.4-1.6-4.8-2.4-6.4-1.6c-0.8,0.8,0,3.2,1.6,6.4c0.8-0.8,1.6-1.6,2.4-1.6
	S427.2,341.6,428,340.8z"/>
<path style="fill:#535A5B;" d="M426.4,343.2c0.8-0.8,1.6-1.6,1.6-2.4c-2.4-1.6-4.8-2.4-6.4-1.6"/>
<path style="fill:#666E70;" d="M388,330.4c3.2-0.8,5.6-1.6,5.6-3.2s-2.4-2.4-5.6-3.2c0,0.8,0,1.6,0,3.2C388,328,388,329.6,388,330.4
	z"/>
<path style="fill:#535A5B;" d="M393.6,327.2c0-1.6-2.4-2.4-5.6-3.2c0,0.8,0,1.6,0,3.2"/>
<path style="fill:#666E70;" d="M427.2,327.2c0,1.6,2.4,2.4,5.6,3.2c0-2.4,0-4,0-6.4C429.6,324.8,427.2,325.6,427.2,327.2z"/>
<path style="fill:#535A5B;" d="M432.8,324c-3.2,0.8-5.6,1.6-5.6,3.2"/>
<path style="fill:#666E70;" d="M392,340.8c1.6,1.6,2.4,3.2,4,4c1.6-2.4,3.2-4.8,1.6-6.4C397.6,338.4,395.2,339.2,392,340.8z"/>
<path style="fill:#535A5B;" d="M396.8,344.8c1.6-2.4,3.2-4.8,1.6-6.4"/>
<path style="fill:#666E70;" d="M424,309.6c-1.6,2.4-3.2,4.8-1.6,6.4c0.8,0.8,3.2,0,6.4-1.6C427.2,312,425.6,310.4,424,309.6z"/>
<path style="fill:#535A5B;" d="M424,309.6c-1.6,2.4-3.2,4.8-1.6,6.4"/>
<path style="fill:#EA7C0F;" d="M451.2,266.4h40c-1.6-5.6-4.8-10.4-8.8-15.2h-44L451.2,266.4z"/>
<path style="fill:#FFA300;" d="M443.2,250.4l13.6,15.2h34.4c-1.6-5.6-4.8-10.4-8.8-15.2L443.2,250.4L443.2,250.4z"/>
<path style="fill:#BC043D;" d="M10.4,228c0,0.8,0.8,1.6,0.8,1.6l7.2,12H56l-18.4-16.8H10.4V228z"/>
<g>
	<path style="fill:#51859B;" d="M260.8,211.2h122.4L308.8,152h-48c-4.8,0-8.8,4-8.8,8.8v42.4C252.8,207.2,256.8,211.2,260.8,211.2z"
		/>
	<path style="fill:#51859B;" d="M112.8,211.2h-84l36-59.2h48c4.8,0,8.8,4,8.8,8.8v42.4C120.8,207.2,117.6,211.2,112.8,211.2z"/>
	<path style="fill:#51859B;" d="M228.8,151.2h-35.2h-12.8h-35.2c-4.8,0-8.8,4-8.8,8.8v42.4c0,4.8,4,8,8,8.8l0,0l0,0H228l0,0l0,0
		c4.8,0,8-4,8-8.8V160C237.6,155.2,233.6,151.2,228.8,151.2z"/>
</g>
<g>
	<polygon style="fill:#81B6C9;" points="48.8,177.6 75.2,151.2 64.8,151.2 	"/>
	<path style="fill:#81B6C9;" d="M112.8,151.2H87.2l-56,56l-2.4,3.2h32l57.6-57.6C116.8,152,114.4,151.2,112.8,151.2z"/>
	<polygon style="fill:#81B6C9;" points="120.8,191.2 120.8,175.2 84.8,211.2 101.6,211.2 	"/>
	<path style="fill:#81B6C9;" d="M237.6,202.4v-9.6l-18.4,18.4h9.6l0,0l0,0C233.6,210.4,237.6,207.2,237.6,202.4z"/>
	<path style="fill:#81B6C9;" d="M236,155.2c-1.6-2.4-4-3.2-6.4-3.2h-35.2h-12.8h-35.2c-4.8,0-8.8,4-8.8,8.8v42.4c0,4.8,4,8,8,8.8
		l0,0l0,0H180L236,155.2z"/>
	<path style="fill:#81B6C9;" d="M309.6,152l-55.2,55.2c1.6,1.6,4,3.2,6.4,3.2H284l44-44L309.6,152z"/>
	<polygon style="fill:#81B6C9;" points="351.2,184.8 342.4,177.6 308.8,211.2 324.8,211.2 	"/>
	<polygon style="fill:#81B6C9;" points="298.4,151.2 278.4,151.2 252.8,177.6 252.8,197.6 	"/>
</g>
<g>
	<path style="fill:#4ED192;" d="M284,225.6c0,1.6-1.6,3.2-3.2,3.2H264c-1.6,0-3.2-1.6-3.2-3.2l0,0c0-1.6,1.6-3.2,3.2-3.2h16.8
		C282.4,222.4,284,223.2,284,225.6L284,225.6z"/>
	<path style="fill:#4ED192;" d="M163.2,225.6c0,1.6-1.6,3.2-3.2,3.2h-16.8c-1.6,0-3.2-1.6-3.2-3.2l0,0c0-1.6,1.6-3.2,3.2-3.2H160
		C161.6,222.4,163.2,223.2,163.2,225.6L163.2,225.6z"/>
</g>
<g>
	<path style="fill:#2ABC7A;" d="M497.6,272.8c0,1.6-0.8,2.4-2.4,2.4h-70.4c-1.6,0-2.4-0.8-2.4-2.4l0,0c0-1.6,0.8-2.4,2.4-2.4h70.4
		C496.8,270.4,497.6,271.2,497.6,272.8L497.6,272.8z"/>
	<path style="fill:#2ABC7A;" d="M100.8,272.8c0,1.6-0.8,2.4-2.4,2.4H28c-1.6,0-2.4-0.8-2.4-2.4l0,0c0-1.6,0.8-2.4,2.4-2.4h70.4
		C100,270.4,100.8,271.2,100.8,272.8L100.8,272.8z"/>
</g>
<path style="fill:#21AA6F;" d="M363.2,208c1.6,1.6,1.6,4,0,6.4l0,0c-1.6,1.6-4,1.6-6.4,0l-57.6-59.2c-1.6-1.6-1.6-4,0-6.4l0,0
	c1.6-1.6,4-1.6,6.4,0L363.2,208z"/>
<g>
</g>
<g>
</g>
<g>
</g>
<g>
</g>
<g>
</g>
<g>
</g>
<g>
</g>
<g>
</g>
<g>
</g>
<g>
</g>
<g>
</g>
<g>
</g>
<g>
</g>
<g>
</g>
<g>
</g>
</svg>
