<?xml version="1.0" encoding="iso-8859-1"?>
<!-- Generator: Adobe Illustrator 19.0.0, SVG Export Plug-In . SVG Version: 6.00 Build 0)  -->
<svg version="1.1" id="Layer_1" xmlns="http://www.w3.org/2000/svg" xmlns:xlink="http://www.w3.org/1999/xlink" x="0px" y="0px"
	 viewBox="0 0 512.001 512.001" style="enable-background:new 0 0 512.001 512.001;" xml:space="preserve">
<path style="fill:#00AAF0;" d="M494.717,247.11C468.043,220.436,387.749,211.996,363,211.522c-6.584-0.126-12.52-3.932-15.465-9.821
	l-29.703-59.407c-6.025-12.049-18.339-19.659-31.81-19.659h-22.476c-192.91,0-251.174,137.795-263.127,191.924
	c-2.44,11.048,6.089,21.463,17.403,21.463h476.893V247.11H494.717z"/>
<path style="fill:#00C3FF;" d="M347.536,201.701l-29.703-59.407c-6.025-12.049-18.339-19.659-31.81-19.659h-22.476
	c-133.3,0-202.289,65.79-236.153,124.31c31.657-26.508,73.987-35.422,120.568-35.422c70.102,0,215.038,0,215.038,0
	C356.416,211.396,350.481,207.591,347.536,201.701z"/>
<path style="fill:#FFDC64;" d="M112.397,247.11c-51.173,0-102.21,49.048-106.295,84.44c3.117,2.735,7.168,4.471,11.721,4.471
	h183.485C201.309,286.917,161.502,247.11,112.397,247.11z"/>
<g>
	<path style="fill:#E4EAF8;" d="M502.423,254.168c-7.994-12.373-20.5-15.758-30.242-12.216c-4.508,1.639-9.973,8.215-9.417,15.439
		l30.563,32.23C511.11,289.621,510.418,266.541,502.423,254.168z"/>
	<path style="fill:#E4EAF8;" d="M311.582,199.152l-19.052-44.456c-1.401-3.27-4.616-5.389-8.173-5.389h-29.702
		c-6.398,0-12.62,0.29-18.676,0.802c-4.551,0.386-7.998,4.29-7.998,8.858v43.687c0,4.91,3.981,8.891,8.891,8.891h66.537
		C309.793,211.545,314.096,205.019,311.582,199.152z"/>
	<path style="fill:#E4EAF8;" d="M210.2,164.918c0-5.837-5.554-10.068-11.208-8.621c-30.413,7.783-53.753,20.794-66.614,32.256
		c-9.012,8.032-3.079,22.992,8.993,22.992h59.937c4.91,0,8.891-3.981,8.891-8.891V164.918z"/>
</g>
<g>
	<path style="fill:#C7CFE2;" d="M210.2,164.918c0-5.837-5.554-10.068-11.208-8.621c-30.413,7.783-53.753,20.794-66.614,32.256
		c-8.124,7.241-4.049,20.007,5.666,22.473c0.71-1.684,1.673-3.306,3.225-4.691c13.186-11.751,37.394-25.129,68.931-32.839V164.918z"
		/>
	<path style="fill:#C7CFE2;" d="M292.53,154.696c-1.401-3.27-4.616-5.389-8.173-5.389h-29.702c-6.398,0-12.62,0.29-18.676,0.802
		c-4.551,0.386-7.998,4.29-7.998,8.858v10.963c11.187-1.776,23.055-2.841,35.565-2.841h29.702c2.025,0,3.892,0.745,5.424,1.939
		L292.53,154.696z"/>
</g>
<path style="fill:#FFDC64;" d="M423.587,247.11c-49.105,0-88.911,39.807-88.911,88.911h168.376c5.337,0,9.485-4.683,8.892-9.987
	C506.981,281.631,469.316,247.11,423.587,247.11z"/>
<path style="fill:#0096DC;" d="M358.165,238.219H178.624c-6.239,0-8.613,7.884-3.573,11.561
	c16.452,12.004,29.331,28.607,36.782,47.903c2.685,6.954,9.196,11.664,16.651,11.664h79.02c7.454,0,13.965-4.711,16.651-11.664
	c7.55-19.551,20.67-36.336,37.433-48.375C366.454,245.813,364.159,238.219,358.165,238.219z"/>
<path style="fill:#E1A546;" d="M112.397,264.892c-39.283,0-71.129,31.846-71.129,71.129h142.258
	C183.527,296.738,151.681,264.892,112.397,264.892z"/>
<circle style="fill:#464655;" cx="112.396" cy="336.02" r="53.347"/>
<circle style="fill:#00AAF0;" cx="112.396" cy="336.02" r="26.673"/>
<path style="fill:#E1A546;" d="M423.587,264.892c-39.283,0-71.129,31.846-71.129,71.129h142.258
	C494.717,296.738,462.871,264.892,423.587,264.892z"/>
<circle style="fill:#464655;" cx="423.586" cy="336.02" r="53.347"/>
<circle style="fill:#00AAF0;" cx="423.586" cy="336.02" r="26.673"/>
<g>
	<circle style="fill:#0096DC;" cx="423.586" cy="336.02" r="8.891"/>
	<circle style="fill:#0096DC;" cx="112.396" cy="336.02" r="8.891"/>
</g>
<g>
</g>
<g>
</g>
<g>
</g>
<g>
</g>
<g>
</g>
<g>
</g>
<g>
</g>
<g>
</g>
<g>
</g>
<g>
</g>
<g>
</g>
<g>
</g>
<g>
</g>
<g>
</g>
<g>
</g>
</svg>
